<?xml version="1.0" encoding="utf-8"?><svg viewBox="0 0 49 48" xmlns="http://www.w3.org/2000/svg" xmlns:xlink="http://www.w3.org/1999/xlink"><style>:root>svg{display:none}:root>svg:target{display:block}</style><svg viewBox="0 0 27 22" id="envelope" xmlns="http://www.w3.org/2000/svg"><path d="M25.813.905H1.438a.936.936 0 00-.938.937v18.75c0 .519.419.938.938.938h24.375a.936.936 0 00.937-.938V1.842a.936.936 0 00-.938-.937zM24.64 4.15v15.27H2.609V4.15l-.808-.63 1.151-1.48 1.254.976h18.84l1.255-.975 1.151 1.479-.811.63zm-1.594-1.137l-9.422 7.324-9.422-7.324L2.95 2.04l-1.151 1.48.808.629 10.008 7.781a1.64 1.64 0 002.013 0l10.014-7.778.808-.63-1.151-1.48-1.251.973z"/></svg><svg viewBox="0 0 42 42" id="facebook" xmlns="http://www.w3.org/2000/svg"><path d="M35.752 4.99H6.292a1.28 1.28 0 00-1.28 1.28v29.46c0 .708.572 1.28 1.28 1.28h29.46a1.28 1.28 0 001.28-1.28V6.27a1.28 1.28 0 00-1.28-1.28zm-3.699 9.346h-2.557c-2.006 0-2.394.952-2.394 2.353v3.086h4.787l-.624 4.831h-4.163V37.01h-4.991v-12.4h-4.175v-4.835h4.175v-3.562c0-4.135 2.526-6.388 6.216-6.388 1.769 0 3.286.132 3.73.192v4.319h-.004z"/></svg><svg viewBox="0 0 49 47" id="features-action" xmlns="http://www.w3.org/2000/svg"><path d="M47.637 4.768L44.23 1.362c-.94-.991-2.593-.991-3.584 0L17.874 24.135l6.99 6.99L47.636 8.352c.99-.992.99-2.644 0-3.584zM12.79 28.583a7.625 7.625 0 00-7.625 7.625c0 3.33-2.948 5.084-5.083 5.084 2.338 3.1 6.354 5.083 10.167 5.083a10.167 10.167 0 0010.166-10.167 7.625 7.625 0 00-7.625-7.625z"/></svg><svg viewBox="0 0 45 42" id="features-design" xmlns="http://www.w3.org/2000/svg"><path d="M18.249 41.65c4.153-1.633 3.243-6.137 1.143-8.983-2.077-2.917-4.947-4.924-7.84-6.86A22.905 22.905 0 016.092 21c-.653-.77-1.983-2.193-.63-2.473 1.377-.28 3.757 1.073 4.97 1.586 2.123.887 4.223 1.914 6.183 3.127l2.357-3.967c-3.64-2.403-8.307-4.526-12.647-5.156-2.473-.374-5.086.14-5.926 2.823-.747 2.31.443 4.643 1.796 6.463 3.197 4.27 8.167 6.324 11.877 10.01.793.77 1.75 1.68 2.217 2.754.49 1.026.373 1.096-.724 1.096-2.893 0-6.51-2.263-8.866-3.756l-2.357 3.966c3.57 2.194 9.543 5.624 13.907 4.177zm25.876-36.4c.514-.513.514-1.353 0-1.843L41.092.373a1.311 1.311 0 00-1.82 0l-2.38 2.38 4.853 4.854 2.38-2.357zm-22.96 13.23v4.853h4.854l14.35-14.35-4.854-4.853-14.35 14.35z"/></svg><svg viewBox="0 0 47 47" id="features-fonts" xmlns="http://www.w3.org/2000/svg"><path d="M14.604.625a13.979 13.979 0 0113.98 13.98c0 3.38-1.195 6.48-3.203 8.895h20.994v22.875H23.5V25.381a13.855 13.855 0 01-8.896 3.202 13.98 13.98 0 010-27.958z"/></svg><svg viewBox="0 0 34 34" id="linkedIn" xmlns="http://www.w3.org/2000/svg"><path d="M31.736.99H2.276a1.28 1.28 0 00-1.28 1.28v29.46c0 .708.572 1.28 1.28 1.28h29.46a1.28 1.28 0 001.28-1.28V2.27a1.28 1.28 0 00-1.28-1.28zM10.494 28.275h-4.75V12.993h4.75v15.282zm-2.373-17.37a2.755 2.755 0 110-5.51 2.755 2.755 0 010 5.51zm20.16 17.37h-4.746v-7.432c0-1.774-.032-4.051-2.47-4.051-2.47 0-2.85 1.93-2.85 3.922v7.561h-4.743V12.993h4.555v2.09h.064c.633-1.201 2.182-2.47 4.495-2.47 4.811 0 5.696 3.166 5.696 7.28v8.382z"/></svg><svg viewBox="0 0 26 33" id="map" xmlns="http://www.w3.org/2000/svg"><g clip-path="url(#gclip0)"><path d="M13.001 19.884a6.34 6.34 0 006.334-6.333A6.34 6.34 0 0013 7.217a6.34 6.34 0 00-6.333 6.334 6.34 6.34 0 006.333 6.333zm0-9.5a3.17 3.17 0 013.167 3.167 3.17 3.17 0 01-3.167 3.166 3.17 3.17 0 01-3.166-3.166A3.17 3.17 0 0113 10.384z"/><path d="M11.748 32.256a1.58 1.58 0 001.837 0c.481-.34 11.794-8.509 11.748-18.706 0-6.984-5.682-12.666-12.666-12.666S0 6.566 0 13.543c-.046 10.204 11.267 18.373 11.748 18.713zm.919-28.206c5.24 0 9.5 4.261 9.5 9.508.033 7.027-6.948 13.337-9.5 15.406-2.55-2.07-9.533-8.382-9.5-15.413 0-5.24 4.26-9.5 9.5-9.5z"/></g><defs><clipPath id="gclip0"><path fill="#fff" transform="translate(0 .717)" d="M0 0h26v32H0z"/></clipPath></defs></svg><svg viewBox="0 0 21 33" id="phone" xmlns="http://www.w3.org/2000/svg"><path d="M16.542.176H4.875A4.37 4.37 0 00.5 4.55v23.333a4.37 4.37 0 004.375 4.375h11.667a4.37 4.37 0 004.375-4.375V4.551A4.37 4.37 0 0016.542.176zm-2.917 29.166H7.792v-1.458h5.833v1.458zm4.74-4.375H3.052V4.551h15.313v20.416z"/></svg><svg viewBox="0 0 40 48" id="play" xmlns="http://www.w3.org/2000/svg"><path d="M.402.594l39.041 23.425L.403 47.443V.594z"/></svg><svg viewBox="0 0 34 28" id="twitter" xmlns="http://www.w3.org/2000/svg"><path d="M33.684 3.685a13.687 13.687 0 01-3.93 1.057A6.809 6.809 0 0032.756.98a13.474 13.474 0 01-4.33 1.649A6.807 6.807 0 0023.437.47 6.823 6.823 0 0016.613 7.3c0 .528.064 1.056.169 1.565A19.396 19.396 0 012.708 1.72a6.777 6.777 0 00-.928 3.446 6.83 6.83 0 003.042 5.688 6.884 6.884 0 01-3.086-.869v.085a6.826 6.826 0 005.471 6.7c-.587.152-1.19.23-1.797.232a9.07 9.07 0 01-1.289-.104 6.837 6.837 0 006.38 4.735 13.68 13.68 0 01-8.473 2.918c-.572 0-1.1-.02-1.65-.084a19.327 19.327 0 0010.484 3.062c12.552 0 19.42-10.399 19.42-19.425 0-.296 0-.592-.02-.888a14.7 14.7 0 003.422-3.53z"/></svg></svg>